<svg xmlns="http://www.w3.org/2000/svg" width="960" height="950" viewBox="0 0 960 950">
<title>Top View RPG Monsters Catalog</title><desc>Thirty original named top-view monsters for later selection.</desc>
<defs><style>.card{fill:#172238;stroke:#334155;stroke-width:2}.ink{stroke:#07111F;stroke-width:4;stroke-linejoin:round;stroke-linecap:round}.thin{stroke:#07111F;stroke-width:2;stroke-linejoin:round;stroke-linecap:round}.label{fill:#F8FAFC;font-family:Arial,sans-serif;font-size:12px;font-weight:bold;text-anchor:middle}.sub{fill:#A8B5C7;font-family:Arial,sans-serif;font-size:10px;text-anchor:middle}</style></defs>
<rect class="card" x="10" y="10" width="140" height="170" rx="12"/>
<g id="monster_01" transform="translate(80 82)">
<ellipse cx="0" cy="47" rx="36" ry="9" fill="#050B16" opacity=".48"/>
<path class="ink" fill="#65A30D" d="M-37 20c0-31 16-49 37-49s37 18 37 49c0 25-14 37-37 37s-37-12-37-37z"/><circle cx="0" cy="-42" r="22" fill="none" stroke="#A3E635" stroke-width="5"/><path class="thin" d="M-22-42h44M0-64v44"/><path class="thin" fill="#FDE047" d="M-22 14c7-9 15-13 22-13s15 4 22 13c-4 14-11 20-22 20s-18-6-22-20z"/><circle cx="-9" cy="10" r="5" fill="#FDE047" stroke="#07111F" stroke-width="3"/><circle cx="9" cy="10" r="5" fill="#FDE047" stroke="#07111F" stroke-width="3"/><circle cx="-9" cy="10" r="2" fill="#07111F"/><circle cx="9" cy="10" r="2" fill="#07111F"/>
<path class="thin" fill="none" d="M-13 29c8 6 18 6 26 0"/>
<text class="label" y="76">01 Acid Slime</text><text class="sub" y="92">monster / blob</text>
</g>
<rect class="card" x="170" y="10" width="140" height="170" rx="12"/>
<g id="monster_02" transform="translate(240 82)">
<ellipse cx="0" cy="47" rx="36" ry="9" fill="#050B16" opacity=".48"/>
<path class="ink" fill="#365314" d="M-36 24-51-13l25 12L0-30 26-1l25-12-15 37c-8 19-19 28-36 28s-28-9-36-28z"/><path class="ink" fill="#4D7C0F" d="M-12-40 0-62 12-40v25h-24z"/><path class="thin" fill="#A3E635" d="M-5-42 0-52 5-42z"/><path class="thin" fill="#A3E635" d="M-22 14c7-9 15-13 22-13s15 4 22 13c-4 14-11 20-22 20s-18-6-22-20z"/><circle cx="-9" cy="10" r="5" fill="#A3E635" stroke="#07111F" stroke-width="3"/><circle cx="9" cy="10" r="5" fill="#A3E635" stroke="#07111F" stroke-width="3"/><circle cx="-9" cy="10" r="2" fill="#07111F"/><circle cx="9" cy="10" r="2" fill="#07111F"/>
<path class="thin" fill="none" d="M-13 29c8 6 18 6 26 0"/>
<text class="label" y="76">02 Iron Goblin</text><text class="sub" y="92">monster / raider</text>
</g>
<rect class="card" x="330" y="10" width="140" height="170" rx="12"/>
<g id="monster_03" transform="translate(400 82)">
<ellipse cx="0" cy="47" rx="36" ry="9" fill="#050B16" opacity=".48"/>
<path class="ink" fill="#475569" d="M-49 15c-2-27 12-49 29-55l-5-23 25 18 25-18-5 23c17 6 31 28 29 55-3 30-20 43-49 43s-46-13-49-43z"/><path class="ink" fill="#BAE6FD" d="M-48-10h20v34h-20zM28-10h20v34H28z"/><path class="thin" fill="#5EEAD4" d="M-42-4h8v18h-8zM34-4h8v18h-8z"/><path class="thin" fill="#5EEAD4" d="M-22 14c7-9 15-13 22-13s15 4 22 13c-4 14-11 20-22 20s-18-6-22-20z"/><circle cx="-9" cy="10" r="5" fill="#5EEAD4" stroke="#07111F" stroke-width="3"/><circle cx="9" cy="10" r="5" fill="#5EEAD4" stroke="#07111F" stroke-width="3"/><circle cx="-9" cy="10" r="2" fill="#07111F"/><circle cx="9" cy="10" r="2" fill="#07111F"/>
<path class="thin" fill="none" d="M-13 29c8 6 18 6 26 0"/>
<text class="label" y="76">03 Frost Wolf</text><text class="sub" y="92">monster / hunter</text>
</g>
<rect class="card" x="490" y="10" width="140" height="170" rx="12"/>
<g id="monster_04" transform="translate(560 82)">
<ellipse cx="0" cy="47" rx="36" ry="9" fill="#050B16" opacity=".48"/>
<path class="ink" fill="#334155" d="M-45 15 0-47 45 15 27 51H-27z"/><path class="ink" fill="#E2E8F0" d="M-45 8 0-43 45 8 0 31z"/><path class="thin" fill="#A78BFA" d="M-20 8 0-18 20 8 0 18z"/><path class="thin" fill="#A78BFA" d="M-22 14c7-9 15-13 22-13s15 4 22 13c-4 14-11 20-22 20s-18-6-22-20z"/><circle cx="-9" cy="10" r="5" fill="#A78BFA" stroke="#07111F" stroke-width="3"/><circle cx="9" cy="10" r="5" fill="#A78BFA" stroke="#07111F" stroke-width="3"/><circle cx="-9" cy="10" r="2" fill="#07111F"/><circle cx="9" cy="10" r="2" fill="#07111F"/>
<path class="thin" fill="none" d="M-13 29c8 6 18 6 26 0"/>
<text class="label" y="76">04 Bone Caster</text><text class="sub" y="92">monster / caster</text>
</g>
<rect class="card" x="650" y="10" width="140" height="170" rx="12"/>
<g id="monster_05" transform="translate(720 82)">
<ellipse cx="0" cy="47" rx="36" ry="9" fill="#050B16" opacity=".48"/>
<path class="ink" fill="#57534E" d="M-57 18c0-33 24-54 57-54s57 21 57 54c0 35-23 46-57 46s-57-11-57-46z"/><path class="ink" fill="#166534" d="M-30-28 0-52 30-28 20-16H-20z"/><path class="thin" fill="#FACC15" d="M-16-28 0-40 16-28 0-22z"/><path class="thin" fill="#FACC15" d="M-22 14c7-9 15-13 22-13s15 4 22 13c-4 14-11 20-22 20s-18-6-22-20z"/><circle cx="-9" cy="10" r="5" fill="#FACC15" stroke="#07111F" stroke-width="3"/><circle cx="9" cy="10" r="5" fill="#FACC15" stroke="#07111F" stroke-width="3"/><circle cx="-9" cy="10" r="2" fill="#07111F"/><circle cx="9" cy="10" r="2" fill="#07111F"/>
<path class="thin" fill="none" d="M-13 29c8 6 18 6 26 0"/>
<text class="label" y="76">05 Moss Golem</text><text class="sub" y="92">monster / boss</text>
</g>
<rect class="card" x="810" y="10" width="140" height="170" rx="12"/>
<g id="monster_06" transform="translate(880 82)">
<ellipse cx="0" cy="47" rx="36" ry="9" fill="#050B16" opacity=".48"/>
<path class="ink" fill="#312E81" d="M-15 61c-26-13-39-35-33-58 5-22 18-37 48-49 30 12 43 27 48 49 6 23-7 45-33 58z"/><path class="ink" fill="#7C3AED" d="M-34-25-51-47-24-37 0-49 24-37 51-47 34-25z"/><path class="thin" fill="#5EEAD4" d="M-22 14c7-9 15-13 22-13s15 4 22 13c-4 14-11 20-22 20s-18-6-22-20z"/><circle cx="-9" cy="10" r="5" fill="#5EEAD4" stroke="#07111F" stroke-width="3"/><circle cx="9" cy="10" r="5" fill="#5EEAD4" stroke="#07111F" stroke-width="3"/><circle cx="-9" cy="10" r="2" fill="#07111F"/><circle cx="9" cy="10" r="2" fill="#07111F"/>
<path class="thin" fill="none" d="M-13 29c8 6 18 6 26 0"/>
<text class="label" y="76">06 Void Wisp</text><text class="sub" y="92">monster / elite</text>
</g>
<rect class="card" x="10" y="200" width="140" height="170" rx="12"/>
<g id="monster_07" transform="translate(80 272)">
<ellipse cx="0" cy="47" rx="36" ry="9" fill="#050B16" opacity=".48"/>
<path class="ink" fill="#9A3412" d="M-49 0 0-31 49 0 0 61z"/><circle cx="0" cy="-42" r="22" fill="none" stroke="#F97316" stroke-width="5"/><path class="thin" d="M-22-42h44M0-64v44"/><path class="thin" fill="#FDE047" d="M-22 14c7-9 15-13 22-13s15 4 22 13c-4 14-11 20-22 20s-18-6-22-20z"/><circle cx="-9" cy="10" r="5" fill="#FDE047" stroke="#07111F" stroke-width="3"/><circle cx="9" cy="10" r="5" fill="#FDE047" stroke="#07111F" stroke-width="3"/><circle cx="-9" cy="10" r="2" fill="#07111F"/><circle cx="9" cy="10" r="2" fill="#07111F"/>
<path class="thin" fill="none" d="M-13 29c8 6 18 6 26 0"/>
<text class="label" y="76">07 Ember Beetle</text><text class="sub" y="92">monster / swarm</text>
</g>
<rect class="card" x="170" y="200" width="140" height="170" rx="12"/>
<g id="monster_08" transform="translate(240 272)">
<ellipse cx="0" cy="47" rx="36" ry="9" fill="#050B16" opacity=".48"/>
<path class="ink" fill="#164E63" d="M-37-8c-13 14-19 38-9 54 8 14 22 18 46 18s38-4 46-18c10-16 4-40-9-54L24-34H-24z"/><path class="ink" fill="#67E8F9" d="M-12-40 0-62 12-40v25h-24z"/><path class="thin" fill="#F8FAFC" d="M-5-42 0-52 5-42z"/><path class="thin" fill="#F8FAFC" d="M-22 14c7-9 15-13 22-13s15 4 22 13c-4 14-11 20-22 20s-18-6-22-20z"/><circle cx="-9" cy="10" r="5" fill="#F8FAFC" stroke="#07111F" stroke-width="3"/><circle cx="9" cy="10" r="5" fill="#F8FAFC" stroke="#07111F" stroke-width="3"/><circle cx="-9" cy="10" r="2" fill="#07111F"/><circle cx="9" cy="10" r="2" fill="#07111F"/>
<path class="thin" fill="none" d="M-13 29c8 6 18 6 26 0"/>
<text class="label" y="76">08 Crystal Crab</text><text class="sub" y="92">monster / armored</text>
</g>
<rect class="card" x="330" y="200" width="140" height="170" rx="12"/>
<g id="monster_09" transform="translate(400 272)">
<ellipse cx="0" cy="47" rx="36" ry="9" fill="#050B16" opacity=".48"/>
<path class="ink" fill="#713F12" d="M-31 50-55 9-35-8-27-45 0-28 27-45 35-8 55 9 31 50z"/><path class="ink" fill="#A16207" d="M-48-10h20v34h-20zM28-10h20v34H28z"/><path class="thin" fill="#FB923C" d="M-42-4h8v18h-8zM34-4h8v18h-8z"/><path class="thin" fill="#FB923C" d="M-22 14c7-9 15-13 22-13s15 4 22 13c-4 14-11 20-22 20s-18-6-22-20z"/><circle cx="-9" cy="10" r="5" fill="#FB923C" stroke="#07111F" stroke-width="3"/><circle cx="9" cy="10" r="5" fill="#FB923C" stroke="#07111F" stroke-width="3"/><circle cx="-9" cy="10" r="2" fill="#07111F"/><circle cx="9" cy="10" r="2" fill="#07111F"/>
<path class="thin" fill="none" d="M-13 29c8 6 18 6 26 0"/>
<text class="label" y="76">09 Thorn Boar</text><text class="sub" y="92">monster / charger</text>
</g>
<rect class="card" x="490" y="200" width="140" height="170" rx="12"/>
<g id="monster_10" transform="translate(560 272)">
<ellipse cx="0" cy="47" rx="36" ry="9" fill="#050B16" opacity=".48"/>
<path class="ink" fill="#581C87" d="M-47 35c-19-20-12-55 10-68l-8-24 25 13 20-18 20 18 25-13-8 24c22 13 29 48 10 68-18 19-76 19-94 0z"/><path class="ink" fill="#C026D3" d="M-45 8 0-43 45 8 0 31z"/><path class="thin" fill="#F0ABFC" d="M-20 8 0-18 20 8 0 18z"/><path class="thin" fill="#F0ABFC" d="M-22 14c7-9 15-13 22-13s15 4 22 13c-4 14-11 20-22 20s-18-6-22-20z"/><circle cx="-9" cy="10" r="5" fill="#F0ABFC" stroke="#07111F" stroke-width="3"/><circle cx="9" cy="10" r="5" fill="#F0ABFC" stroke="#07111F" stroke-width="3"/><circle cx="-9" cy="10" r="2" fill="#07111F"/><circle cx="9" cy="10" r="2" fill="#07111F"/>
<path class="thin" fill="none" d="M-13 29c8 6 18 6 26 0"/>
<text class="label" y="76">10 Plasma Bat</text><text class="sub" y="92">monster / swarm</text>
</g>
<rect class="card" x="650" y="200" width="140" height="170" rx="12"/>
<g id="monster_11" transform="translate(720 272)">
<ellipse cx="0" cy="47" rx="36" ry="9" fill="#050B16" opacity=".48"/>
<path class="ink" fill="#65A30D" d="M-37 20c0-31 16-49 37-49s37 18 37 49c0 25-14 37-37 37s-37-12-37-37z"/><path class="ink" fill="#A3E635" d="M-30-28 0-52 30-28 20-16H-20z"/><path class="thin" fill="#FDE047" d="M-16-28 0-40 16-28 0-22z"/><path class="thin" fill="#FDE047" d="M-22 14c7-9 15-13 22-13s15 4 22 13c-4 14-11 20-22 20s-18-6-22-20z"/><circle cx="-9" cy="10" r="5" fill="#FDE047" stroke="#07111F" stroke-width="3"/><circle cx="9" cy="10" r="5" fill="#FDE047" stroke="#07111F" stroke-width="3"/><circle cx="-9" cy="10" r="2" fill="#07111F"/><circle cx="9" cy="10" r="2" fill="#07111F"/>
<path class="thin" fill="none" d="M-13 29c8 6 18 6 26 0"/>
<text class="label" y="76">11 Sand Maw</text><text class="sub" y="92">monster / boss</text>
</g>
<rect class="card" x="810" y="200" width="140" height="170" rx="12"/>
<g id="monster_12" transform="translate(880 272)">
<ellipse cx="0" cy="47" rx="36" ry="9" fill="#050B16" opacity=".48"/>
<path class="ink" fill="#365314" d="M-36 24-51-13l25 12L0-30 26-1l25-12-15 37c-8 19-19 28-36 28s-28-9-36-28z"/><path class="ink" fill="#4D7C0F" d="M-34-25-51-47-24-37 0-49 24-37 51-47 34-25z"/><path class="thin" fill="#A3E635" d="M-22 14c7-9 15-13 22-13s15 4 22 13c-4 14-11 20-22 20s-18-6-22-20z"/><circle cx="-9" cy="10" r="5" fill="#A3E635" stroke="#07111F" stroke-width="3"/><circle cx="9" cy="10" r="5" fill="#A3E635" stroke="#07111F" stroke-width="3"/><circle cx="-9" cy="10" r="2" fill="#07111F"/><circle cx="9" cy="10" r="2" fill="#07111F"/>
<path class="thin" fill="none" d="M-13 29c8 6 18 6 26 0"/>
<text class="label" y="76">12 Neon Mantis</text><text class="sub" y="92">monster / hunter</text>
</g>
<rect class="card" x="10" y="390" width="140" height="170" rx="12"/>
<g id="monster_13" transform="translate(80 462)">
<ellipse cx="0" cy="47" rx="36" ry="9" fill="#050B16" opacity=".48"/>
<path class="ink" fill="#475569" d="M-49 15c-2-27 12-49 29-55l-5-23 25 18 25-18-5 23c17 6 31 28 29 55-3 30-20 43-49 43s-46-13-49-43z"/><circle cx="0" cy="-42" r="22" fill="none" stroke="#BAE6FD" stroke-width="5"/><path class="thin" d="M-22-42h44M0-64v44"/><path class="thin" fill="#5EEAD4" d="M-22 14c7-9 15-13 22-13s15 4 22 13c-4 14-11 20-22 20s-18-6-22-20z"/><circle cx="-9" cy="10" r="5" fill="#5EEAD4" stroke="#07111F" stroke-width="3"/><circle cx="9" cy="10" r="5" fill="#5EEAD4" stroke="#07111F" stroke-width="3"/><circle cx="-9" cy="10" r="2" fill="#07111F"/><circle cx="9" cy="10" r="2" fill="#07111F"/>
<path class="thin" fill="none" d="M-13 29c8 6 18 6 26 0"/>
<text class="label" y="76">13 Rust Hound</text><text class="sub" y="92">monster / hunter</text>
</g>
<rect class="card" x="170" y="390" width="140" height="170" rx="12"/>
<g id="monster_14" transform="translate(240 462)">
<ellipse cx="0" cy="47" rx="36" ry="9" fill="#050B16" opacity=".48"/>
<path class="ink" fill="#334155" d="M-45 15 0-47 45 15 27 51H-27z"/><path class="ink" fill="#E2E8F0" d="M-12-40 0-62 12-40v25h-24z"/><path class="thin" fill="#A78BFA" d="M-5-42 0-52 5-42z"/><path class="thin" fill="#A78BFA" d="M-22 14c7-9 15-13 22-13s15 4 22 13c-4 14-11 20-22 20s-18-6-22-20z"/><circle cx="-9" cy="10" r="5" fill="#A78BFA" stroke="#07111F" stroke-width="3"/><circle cx="9" cy="10" r="5" fill="#A78BFA" stroke="#07111F" stroke-width="3"/><circle cx="-9" cy="10" r="2" fill="#07111F"/><circle cx="9" cy="10" r="2" fill="#07111F"/>
<path class="thin" fill="none" d="M-13 29c8 6 18 6 26 0"/>
<text class="label" y="76">14 Lava Imp</text><text class="sub" y="92">monster / caster</text>
</g>
<rect class="card" x="330" y="390" width="140" height="170" rx="12"/>
<g id="monster_15" transform="translate(400 462)">
<ellipse cx="0" cy="47" rx="36" ry="9" fill="#050B16" opacity=".48"/>
<path class="ink" fill="#57534E" d="M-57 18c0-33 24-54 57-54s57 21 57 54c0 35-23 46-57 46s-57-11-57-46z"/><path class="ink" fill="#166534" d="M-48-10h20v34h-20zM28-10h20v34H28z"/><path class="thin" fill="#FACC15" d="M-42-4h8v18h-8zM34-4h8v18h-8z"/><path class="thin" fill="#FACC15" d="M-22 14c7-9 15-13 22-13s15 4 22 13c-4 14-11 20-22 20s-18-6-22-20z"/><circle cx="-9" cy="10" r="5" fill="#FACC15" stroke="#07111F" stroke-width="3"/><circle cx="9" cy="10" r="5" fill="#FACC15" stroke="#07111F" stroke-width="3"/><circle cx="-9" cy="10" r="2" fill="#07111F"/><circle cx="9" cy="10" r="2" fill="#07111F"/>
<path class="thin" fill="none" d="M-13 29c8 6 18 6 26 0"/>
<text class="label" y="76">15 Storm Crow</text><text class="sub" y="92">monster / flying</text>
</g>
<rect class="card" x="490" y="390" width="140" height="170" rx="12"/>
<g id="monster_16" transform="translate(560 462)">
<ellipse cx="0" cy="47" rx="36" ry="9" fill="#050B16" opacity=".48"/>
<path class="ink" fill="#312E81" d="M-15 61c-26-13-39-35-33-58 5-22 18-37 48-49 30 12 43 27 48 49 6 23-7 45-33 58z"/><path class="ink" fill="#7C3AED" d="M-45 8 0-43 45 8 0 31z"/><path class="thin" fill="#5EEAD4" d="M-20 8 0-18 20 8 0 18z"/><path class="thin" fill="#5EEAD4" d="M-22 14c7-9 15-13 22-13s15 4 22 13c-4 14-11 20-22 20s-18-6-22-20z"/><circle cx="-9" cy="10" r="5" fill="#5EEAD4" stroke="#07111F" stroke-width="3"/><circle cx="9" cy="10" r="5" fill="#5EEAD4" stroke="#07111F" stroke-width="3"/><circle cx="-9" cy="10" r="2" fill="#07111F"/><circle cx="9" cy="10" r="2" fill="#07111F"/>
<path class="thin" fill="none" d="M-13 29c8 6 18 6 26 0"/>
<text class="label" y="76">16 Deep Eel</text><text class="sub" y="92">monster / aquatic</text>
</g>
<rect class="card" x="650" y="390" width="140" height="170" rx="12"/>
<g id="monster_17" transform="translate(720 462)">
<ellipse cx="0" cy="47" rx="36" ry="9" fill="#050B16" opacity=".48"/>
<path class="ink" fill="#9A3412" d="M-49 0 0-31 49 0 0 61z"/><path class="ink" fill="#F97316" d="M-30-28 0-52 30-28 20-16H-20z"/><path class="thin" fill="#FDE047" d="M-16-28 0-40 16-28 0-22z"/><path class="thin" fill="#FDE047" d="M-22 14c7-9 15-13 22-13s15 4 22 13c-4 14-11 20-22 20s-18-6-22-20z"/><circle cx="-9" cy="10" r="5" fill="#FDE047" stroke="#07111F" stroke-width="3"/><circle cx="9" cy="10" r="5" fill="#FDE047" stroke="#07111F" stroke-width="3"/><circle cx="-9" cy="10" r="2" fill="#07111F"/><circle cx="9" cy="10" r="2" fill="#07111F"/>
<path class="thin" fill="none" d="M-13 29c8 6 18 6 26 0"/>
<text class="label" y="76">17 Spore Shambler</text><text class="sub" y="92">monster / nature</text>
</g>
<rect class="card" x="810" y="390" width="140" height="170" rx="12"/>
<g id="monster_18" transform="translate(880 462)">
<ellipse cx="0" cy="47" rx="36" ry="9" fill="#050B16" opacity=".48"/>
<path class="ink" fill="#164E63" d="M-37-8c-13 14-19 38-9 54 8 14 22 18 46 18s38-4 46-18c10-16 4-40-9-54L24-34H-24z"/><path class="ink" fill="#67E8F9" d="M-34-25-51-47-24-37 0-49 24-37 51-47 34-25z"/><path class="thin" fill="#F8FAFC" d="M-22 14c7-9 15-13 22-13s15 4 22 13c-4 14-11 20-22 20s-18-6-22-20z"/><circle cx="-9" cy="10" r="5" fill="#F8FAFC" stroke="#07111F" stroke-width="3"/><circle cx="9" cy="10" r="5" fill="#F8FAFC" stroke="#07111F" stroke-width="3"/><circle cx="-9" cy="10" r="2" fill="#07111F"/><circle cx="9" cy="10" r="2" fill="#07111F"/>
<path class="thin" fill="none" d="M-13 29c8 6 18 6 26 0"/>
<text class="label" y="76">18 Glass Scorpion</text><text class="sub" y="92">monster / assassin</text>
</g>
<rect class="card" x="10" y="580" width="140" height="170" rx="12"/>
<g id="monster_19" transform="translate(80 652)">
<ellipse cx="0" cy="47" rx="36" ry="9" fill="#050B16" opacity=".48"/>
<path class="ink" fill="#713F12" d="M-31 50-55 9-35-8-27-45 0-28 27-45 35-8 55 9 31 50z"/><circle cx="0" cy="-42" r="22" fill="none" stroke="#A16207" stroke-width="5"/><path class="thin" d="M-22-42h44M0-64v44"/><path class="thin" fill="#FB923C" d="M-22 14c7-9 15-13 22-13s15 4 22 13c-4 14-11 20-22 20s-18-6-22-20z"/><circle cx="-9" cy="10" r="5" fill="#FB923C" stroke="#07111F" stroke-width="3"/><circle cx="9" cy="10" r="5" fill="#FB923C" stroke="#07111F" stroke-width="3"/><circle cx="-9" cy="10" r="2" fill="#07111F"/><circle cx="9" cy="10" r="2" fill="#07111F"/>
<path class="thin" fill="none" d="M-13 29c8 6 18 6 26 0"/>
<text class="label" y="76">19 Arc Jelly</text><text class="sub" y="92">monster / blob</text>
</g>
<rect class="card" x="170" y="580" width="140" height="170" rx="12"/>
<g id="monster_20" transform="translate(240 652)">
<ellipse cx="0" cy="47" rx="36" ry="9" fill="#050B16" opacity=".48"/>
<path class="ink" fill="#581C87" d="M-47 35c-19-20-12-55 10-68l-8-24 25 13 20-18 20 18 25-13-8 24c22 13 29 48 10 68-18 19-76 19-94 0z"/><path class="ink" fill="#C026D3" d="M-12-40 0-62 12-40v25h-24z"/><path class="thin" fill="#F0ABFC" d="M-5-42 0-52 5-42z"/><path class="thin" fill="#F0ABFC" d="M-22 14c7-9 15-13 22-13s15 4 22 13c-4 14-11 20-22 20s-18-6-22-20z"/><circle cx="-9" cy="10" r="5" fill="#F0ABFC" stroke="#07111F" stroke-width="3"/><circle cx="9" cy="10" r="5" fill="#F0ABFC" stroke="#07111F" stroke-width="3"/><circle cx="-9" cy="10" r="2" fill="#07111F"/><circle cx="9" cy="10" r="2" fill="#07111F"/>
<path class="thin" fill="none" d="M-13 29c8 6 18 6 26 0"/>
<text class="label" y="76">20 Cinder Wyrm</text><text class="sub" y="92">monster / boss</text>
</g>
<rect class="card" x="330" y="580" width="140" height="170" rx="12"/>
<g id="monster_21" transform="translate(400 652)">
<ellipse cx="0" cy="47" rx="36" ry="9" fill="#050B16" opacity=".48"/>
<path class="ink" fill="#65A30D" d="M-37 20c0-31 16-49 37-49s37 18 37 49c0 25-14 37-37 37s-37-12-37-37z"/><path class="ink" fill="#A3E635" d="M-48-10h20v34h-20zM28-10h20v34H28z"/><path class="thin" fill="#FDE047" d="M-42-4h8v18h-8zM34-4h8v18h-8z"/><path class="thin" fill="#FDE047" d="M-22 14c7-9 15-13 22-13s15 4 22 13c-4 14-11 20-22 20s-18-6-22-20z"/><circle cx="-9" cy="10" r="5" fill="#FDE047" stroke="#07111F" stroke-width="3"/><circle cx="9" cy="10" r="5" fill="#FDE047" stroke="#07111F" stroke-width="3"/><circle cx="-9" cy="10" r="2" fill="#07111F"/><circle cx="9" cy="10" r="2" fill="#07111F"/>
<path class="thin" fill="none" d="M-13 29c8 6 18 6 26 0"/>
<text class="label" y="76">21 Shadow Rat</text><text class="sub" y="92">monster / swarm</text>
</g>
<rect class="card" x="490" y="580" width="140" height="170" rx="12"/>
<g id="monster_22" transform="translate(560 652)">
<ellipse cx="0" cy="47" rx="36" ry="9" fill="#050B16" opacity=".48"/>
<path class="ink" fill="#365314" d="M-36 24-51-13l25 12L0-30 26-1l25-12-15 37c-8 19-19 28-36 28s-28-9-36-28z"/><path class="ink" fill="#4D7C0F" d="M-45 8 0-43 45 8 0 31z"/><path class="thin" fill="#A3E635" d="M-20 8 0-18 20 8 0 18z"/><path class="thin" fill="#A3E635" d="M-22 14c7-9 15-13 22-13s15 4 22 13c-4 14-11 20-22 20s-18-6-22-20z"/><circle cx="-9" cy="10" r="5" fill="#A3E635" stroke="#07111F" stroke-width="3"/><circle cx="9" cy="10" r="5" fill="#A3E635" stroke="#07111F" stroke-width="3"/><circle cx="-9" cy="10" r="2" fill="#07111F"/><circle cx="9" cy="10" r="2" fill="#07111F"/>
<path class="thin" fill="none" d="M-13 29c8 6 18 6 26 0"/>
<text class="label" y="76">22 Orbit Drone</text><text class="sub" y="92">monster / tech</text>
</g>
<rect class="card" x="650" y="580" width="140" height="170" rx="12"/>
<g id="monster_23" transform="translate(720 652)">
<ellipse cx="0" cy="47" rx="36" ry="9" fill="#050B16" opacity=".48"/>
<path class="ink" fill="#475569" d="M-49 15c-2-27 12-49 29-55l-5-23 25 18 25-18-5 23c17 6 31 28 29 55-3 30-20 43-49 43s-46-13-49-43z"/><path class="ink" fill="#BAE6FD" d="M-30-28 0-52 30-28 20-16H-20z"/><path class="thin" fill="#5EEAD4" d="M-16-28 0-40 16-28 0-22z"/><path class="thin" fill="#5EEAD4" d="M-22 14c7-9 15-13 22-13s15 4 22 13c-4 14-11 20-22 20s-18-6-22-20z"/><circle cx="-9" cy="10" r="5" fill="#5EEAD4" stroke="#07111F" stroke-width="3"/><circle cx="9" cy="10" r="5" fill="#5EEAD4" stroke="#07111F" stroke-width="3"/><circle cx="-9" cy="10" r="2" fill="#07111F"/><circle cx="9" cy="10" r="2" fill="#07111F"/>
<path class="thin" fill="none" d="M-13 29c8 6 18 6 26 0"/>
<text class="label" y="76">23 Rune Toad</text><text class="sub" y="92">monster / caster</text>
</g>
<rect class="card" x="810" y="580" width="140" height="170" rx="12"/>
<g id="monster_24" transform="translate(880 652)">
<ellipse cx="0" cy="47" rx="36" ry="9" fill="#050B16" opacity=".48"/>
<path class="ink" fill="#334155" d="M-45 15 0-47 45 15 27 51H-27z"/><path class="ink" fill="#E2E8F0" d="M-34-25-51-47-24-37 0-49 24-37 51-47 34-25z"/><path class="thin" fill="#A78BFA" d="M-22 14c7-9 15-13 22-13s15 4 22 13c-4 14-11 20-22 20s-18-6-22-20z"/><circle cx="-9" cy="10" r="5" fill="#A78BFA" stroke="#07111F" stroke-width="3"/><circle cx="9" cy="10" r="5" fill="#A78BFA" stroke="#07111F" stroke-width="3"/><circle cx="-9" cy="10" r="2" fill="#07111F"/><circle cx="9" cy="10" r="2" fill="#07111F"/>
<path class="thin" fill="none" d="M-13 29c8 6 18 6 26 0"/>
<text class="label" y="76">24 Toxic Hydra</text><text class="sub" y="92">monster / boss</text>
</g>
<rect class="card" x="10" y="770" width="140" height="170" rx="12"/>
<g id="monster_25" transform="translate(80 842)">
<ellipse cx="0" cy="47" rx="36" ry="9" fill="#050B16" opacity=".48"/>
<path class="ink" fill="#57534E" d="M-57 18c0-33 24-54 57-54s57 21 57 54c0 35-23 46-57 46s-57-11-57-46z"/><circle cx="0" cy="-42" r="22" fill="none" stroke="#166534" stroke-width="5"/><path class="thin" d="M-22-42h44M0-64v44"/><path class="thin" fill="#FACC15" d="M-22 14c7-9 15-13 22-13s15 4 22 13c-4 14-11 20-22 20s-18-6-22-20z"/><circle cx="-9" cy="10" r="5" fill="#FACC15" stroke="#07111F" stroke-width="3"/><circle cx="9" cy="10" r="5" fill="#FACC15" stroke="#07111F" stroke-width="3"/><circle cx="-9" cy="10" r="2" fill="#07111F"/><circle cx="9" cy="10" r="2" fill="#07111F"/>
<path class="thin" fill="none" d="M-13 29c8 6 18 6 26 0"/>
<text class="label" y="76">25 Metal Mimic</text><text class="sub" y="92">monster / armored</text>
</g>
<rect class="card" x="170" y="770" width="140" height="170" rx="12"/>
<g id="monster_26" transform="translate(240 842)">
<ellipse cx="0" cy="47" rx="36" ry="9" fill="#050B16" opacity=".48"/>
<path class="ink" fill="#312E81" d="M-15 61c-26-13-39-35-33-58 5-22 18-37 48-49 30 12 43 27 48 49 6 23-7 45-33 58z"/><path class="ink" fill="#7C3AED" d="M-12-40 0-62 12-40v25h-24z"/><path class="thin" fill="#5EEAD4" d="M-5-42 0-52 5-42z"/><path class="thin" fill="#5EEAD4" d="M-22 14c7-9 15-13 22-13s15 4 22 13c-4 14-11 20-22 20s-18-6-22-20z"/><circle cx="-9" cy="10" r="5" fill="#5EEAD4" stroke="#07111F" stroke-width="3"/><circle cx="9" cy="10" r="5" fill="#5EEAD4" stroke="#07111F" stroke-width="3"/><circle cx="-9" cy="10" r="2" fill="#07111F"/><circle cx="9" cy="10" r="2" fill="#07111F"/>
<path class="thin" fill="none" d="M-13 29c8 6 18 6 26 0"/>
<text class="label" y="76">26 Moon Moth</text><text class="sub" y="92">monster / flying</text>
</g>
<rect class="card" x="330" y="770" width="140" height="170" rx="12"/>
<g id="monster_27" transform="translate(400 842)">
<ellipse cx="0" cy="47" rx="36" ry="9" fill="#050B16" opacity=".48"/>
<path class="ink" fill="#9A3412" d="M-49 0 0-31 49 0 0 61z"/><path class="ink" fill="#F97316" d="M-48-10h20v34h-20zM28-10h20v34H28z"/><path class="thin" fill="#FDE047" d="M-42-4h8v18h-8zM34-4h8v18h-8z"/><path class="thin" fill="#FDE047" d="M-22 14c7-9 15-13 22-13s15 4 22 13c-4 14-11 20-22 20s-18-6-22-20z"/><circle cx="-9" cy="10" r="5" fill="#FDE047" stroke="#07111F" stroke-width="3"/><circle cx="9" cy="10" r="5" fill="#FDE047" stroke="#07111F" stroke-width="3"/><circle cx="-9" cy="10" r="2" fill="#07111F"/><circle cx="9" cy="10" r="2" fill="#07111F"/>
<path class="thin" fill="none" d="M-13 29c8 6 18 6 26 0"/>
<text class="label" y="76">27 Core Leech</text><text class="sub" y="92">monster / parasite</text>
</g>
<rect class="card" x="490" y="770" width="140" height="170" rx="12"/>
<g id="monster_28" transform="translate(560 842)">
<ellipse cx="0" cy="47" rx="36" ry="9" fill="#050B16" opacity=".48"/>
<path class="ink" fill="#164E63" d="M-37-8c-13 14-19 38-9 54 8 14 22 18 46 18s38-4 46-18c10-16 4-40-9-54L24-34H-24z"/><path class="ink" fill="#67E8F9" d="M-45 8 0-43 45 8 0 31z"/><path class="thin" fill="#F8FAFC" d="M-20 8 0-18 20 8 0 18z"/><path class="thin" fill="#F8FAFC" d="M-22 14c7-9 15-13 22-13s15 4 22 13c-4 14-11 20-22 20s-18-6-22-20z"/><circle cx="-9" cy="10" r="5" fill="#F8FAFC" stroke="#07111F" stroke-width="3"/><circle cx="9" cy="10" r="5" fill="#F8FAFC" stroke="#07111F" stroke-width="3"/><circle cx="-9" cy="10" r="2" fill="#07111F"/><circle cx="9" cy="10" r="2" fill="#07111F"/>
<path class="thin" fill="none" d="M-13 29c8 6 18 6 26 0"/>
<text class="label" y="76">28 Ash Revenant</text><text class="sub" y="92">monster / undead</text>
</g>
<rect class="card" x="650" y="770" width="140" height="170" rx="12"/>
<g id="monster_29" transform="translate(720 842)">
<ellipse cx="0" cy="47" rx="36" ry="9" fill="#050B16" opacity=".48"/>
<path class="ink" fill="#713F12" d="M-31 50-55 9-35-8-27-45 0-28 27-45 35-8 55 9 31 50z"/><path class="ink" fill="#A16207" d="M-30-28 0-52 30-28 20-16H-20z"/><path class="thin" fill="#FB923C" d="M-16-28 0-40 16-28 0-22z"/><path class="thin" fill="#FB923C" d="M-22 14c7-9 15-13 22-13s15 4 22 13c-4 14-11 20-22 20s-18-6-22-20z"/><circle cx="-9" cy="10" r="5" fill="#FB923C" stroke="#07111F" stroke-width="3"/><circle cx="9" cy="10" r="5" fill="#FB923C" stroke="#07111F" stroke-width="3"/><circle cx="-9" cy="10" r="2" fill="#07111F"/><circle cx="9" cy="10" r="2" fill="#07111F"/>
<path class="thin" fill="none" d="M-13 29c8 6 18 6 26 0"/>
<text class="label" y="76">29 Prism Serpent</text><text class="sub" y="92">monster / elite</text>
</g>
<rect class="card" x="810" y="770" width="140" height="170" rx="12"/>
<g id="monster_30" transform="translate(880 842)">
<ellipse cx="0" cy="47" rx="36" ry="9" fill="#050B16" opacity=".48"/>
<path class="ink" fill="#581C87" d="M-47 35c-19-20-12-55 10-68l-8-24 25 13 20-18 20 18 25-13-8 24c22 13 29 48 10 68-18 19-76 19-94 0z"/><path class="ink" fill="#C026D3" d="M-34-25-51-47-24-37 0-49 24-37 51-47 34-25z"/><path class="thin" fill="#F0ABFC" d="M-22 14c7-9 15-13 22-13s15 4 22 13c-4 14-11 20-22 20s-18-6-22-20z"/><circle cx="-9" cy="10" r="5" fill="#F0ABFC" stroke="#07111F" stroke-width="3"/><circle cx="9" cy="10" r="5" fill="#F0ABFC" stroke="#07111F" stroke-width="3"/><circle cx="-9" cy="10" r="2" fill="#07111F"/><circle cx="9" cy="10" r="2" fill="#07111F"/>
<path class="thin" fill="none" d="M-13 29c8 6 18 6 26 0"/>
<text class="label" y="76">30 Null Titan</text><text class="sub" y="92">monster / boss</text>
</g>
</svg>