<svg xmlns="http://www.w3.org/2000/svg" width="960" height="950" viewBox="0 0 960 950">
<title>Top View RPG Weapons Catalog</title><desc>Original named weapons for later selection.</desc>
<defs><style>.card{fill:#172238;stroke:#334155;stroke-width:2}.ink{stroke:#07111F;stroke-width:4;stroke-linejoin:round;stroke-linecap:round}.thin{stroke:#07111F;stroke-width:2;stroke-linejoin:round;stroke-linecap:round}.label{fill:#F8FAFC;font-family:Arial,sans-serif;font-size:12px;font-weight:bold;text-anchor:middle}.sub{fill:#A8B5C7;font-family:Arial,sans-serif;font-size:10px;text-anchor:middle}</style></defs>
<rect class="card" x="10" y="10" width="140" height="170" rx="12"/>
<g id="weapon_01" transform="translate(80 82)">
<ellipse cx="0" cy="43" rx="34" ry="8" fill="#050B16" opacity=".42"/><path class="ink" fill="#F97316" d="M0-65 10 25 0 39-10 25z"/><path class="thin" fill="#FDE047" d="M0-50 3 21-3 21z"/><path class="ink" fill="#FDE047" d="M-20 35h40v9h-40z"/>
<text class="label" y="75">01 Plasma Saber</text><text class="sub" y="91">melee</text></g>
<rect class="card" x="170" y="10" width="140" height="170" rx="12"/>
<g id="weapon_02" transform="translate(240 82)">
<ellipse cx="0" cy="43" rx="34" ry="8" fill="#050B16" opacity=".42"/><path class="ink" fill="none" d="M-38-46c-28 34-28 68 0 92"/><path class="thin" d="M-38-46 42 46"/><path class="ink" fill="#5EEAD4" d="M-38-5h72l-10 5 10 5h-72z"/><path class="thin" fill="#F8FAFC" d="M34-12 55 0 34 12z"/>
<text class="label" y="75">02 Arc Bow</text><text class="sub" y="91">ranged</text></g>
<rect class="card" x="330" y="10" width="140" height="170" rx="12"/>
<g id="weapon_03" transform="translate(400 82)">
<ellipse cx="0" cy="43" rx="34" ry="8" fill="#050B16" opacity=".42"/><path class="ink" fill="#A78BFA" d="M-8-57h16v104H-8z"/><circle class="ink" cx="0" cy="-58" r="20" fill="#C4B5FD"/><circle cx="0" cy="-58" r="7" fill="#A78BFA" stroke="#07111F" stroke-width="3"/>
<text class="label" y="75">03 Pulse Staff</text><text class="sub" y="91">ranged</text></g>
<rect class="card" x="490" y="10" width="140" height="170" rx="12"/>
<g id="weapon_04" transform="translate(560 82)">
<ellipse cx="0" cy="43" rx="34" ry="8" fill="#050B16" opacity=".42"/><path class="ink" fill="#F43F5E" d="M0-64 18 19 0 45-18 19z"/><path class="thin" fill="#FDA4AF" d="M0-45 7 17 0 29-7 17z"/><path class="ink" fill="#F43F5E" d="M-22 35h44v9h-44z"/>
<text class="label" y="75">04 Void Dagger</text><text class="sub" y="91">melee</text></g>
<rect class="card" x="650" y="10" width="140" height="170" rx="12"/>
<g id="weapon_05" transform="translate(720 82)">
<ellipse cx="0" cy="43" rx="34" ry="8" fill="#050B16" opacity=".42"/><path class="ink" fill="#38BDF8" d="M-10-49h20v83h-20z"/><path class="ink" fill="#BAE6FD" d="M-37-43h74v27h-74z"/><path class="thin" d="M-24-34h48"/>
<text class="label" y="75">05 Coil Rifle</text><text class="sub" y="91">ranged</text></g>
<rect class="card" x="810" y="10" width="140" height="170" rx="12"/>
<g id="weapon_06" transform="translate(880 82)">
<ellipse cx="0" cy="43" rx="34" ry="8" fill="#050B16" opacity=".42"/><path class="ink" fill="#A3E635" d="M-10-54h20v84h-20z"/><path class="ink" fill="#D9F99D" d="M-28-46h56v16h-56z"/><path class="thin" d="M-20-38h40"/>
<text class="label" y="75">06 Ember Cannon</text><text class="sub" y="91">ranged</text></g>
<rect class="card" x="10" y="200" width="140" height="170" rx="12"/>
<g id="weapon_07" transform="translate(80 272)">
<ellipse cx="0" cy="43" rx="34" ry="8" fill="#050B16" opacity=".42"/><path class="ink" fill="#F59E0B" d="M-36-50 0-19 36-50 20 0 44 30 0 20-44 30-20 0z"/><circle cx="0" cy="0" r="9" fill="#FEF3C7" stroke="#07111F" stroke-width="3"/>
<text class="label" y="75">07 Frost Wand</text><text class="sub" y="91">ranged</text></g>
<rect class="card" x="170" y="200" width="140" height="170" rx="12"/>
<g id="weapon_08" transform="translate(240 272)">
<ellipse cx="0" cy="43" rx="34" ry="8" fill="#050B16" opacity=".42"/><path class="ink" fill="none" d="M-35-42c28-22 48-3 48 19S-7 20-35 42"/><path class="ink" fill="#E879F9" d="M-6-44h12v88H-6z"/><path class="thin" fill="#F5D0FE" d="M-18-8h36v16h-36z"/>
<text class="label" y="75">08 Thorn Launcher</text><text class="sub" y="91">ranged</text></g>
<rect class="card" x="330" y="200" width="140" height="170" rx="12"/>
<g id="weapon_09" transform="translate(400 272)">
<ellipse cx="0" cy="43" rx="34" ry="8" fill="#050B16" opacity=".42"/><path class="ink" fill="#F97316" d="M-42-22h84v44h-84z"/><path class="thin" fill="#FDE047" d="M-27-12h54v24h-54z"/><path class="ink" fill="#F97316" d="M-12 22h24v29h-24z"/>
<text class="label" y="75">09 Gravity Hammer</text><text class="sub" y="91">melee</text></g>
<rect class="card" x="490" y="200" width="140" height="170" rx="12"/>
<g id="weapon_10" transform="translate(560 272)">
<ellipse cx="0" cy="43" rx="34" ry="8" fill="#050B16" opacity=".42"/><path class="ink" fill="#5EEAD4" d="M-8-56h16v112H-8z"/><path class="ink" fill="#F8FAFC" d="M-34-25h68v15h-68zM-34 10h68v15h-68z"/>
<text class="label" y="75">10 Solar Spear</text><text class="sub" y="91">melee</text></g>
<rect class="card" x="650" y="200" width="140" height="170" rx="12"/>
<g id="weapon_11" transform="translate(720 272)">
<ellipse cx="0" cy="43" rx="34" ry="8" fill="#050B16" opacity=".42"/><path class="ink" fill="#A78BFA" d="M0-65 10 25 0 39-10 25z"/><path class="thin" fill="#C4B5FD" d="M0-50 3 21-3 21z"/><path class="ink" fill="#C4B5FD" d="M-20 35h40v9h-40z"/>
<text class="label" y="75">11 Chain Blaster</text><text class="sub" y="91">ranged</text></g>
<rect class="card" x="810" y="200" width="140" height="170" rx="12"/>
<g id="weapon_12" transform="translate(880 272)">
<ellipse cx="0" cy="43" rx="34" ry="8" fill="#050B16" opacity=".42"/><path class="ink" fill="none" d="M-38-46c-28 34-28 68 0 92"/><path class="thin" d="M-38-46 42 46"/><path class="ink" fill="#F43F5E" d="M-38-5h72l-10 5 10 5h-72z"/><path class="thin" fill="#FDA4AF" d="M34-12 55 0 34 12z"/>
<text class="label" y="75">12 Prism Chakram</text><text class="sub" y="91">ranged</text></g>
<rect class="card" x="10" y="390" width="140" height="170" rx="12"/>
<g id="weapon_13" transform="translate(80 462)">
<ellipse cx="0" cy="43" rx="34" ry="8" fill="#050B16" opacity=".42"/><path class="ink" fill="#38BDF8" d="M-8-57h16v104H-8z"/><circle class="ink" cx="0" cy="-58" r="20" fill="#BAE6FD"/><circle cx="0" cy="-58" r="7" fill="#38BDF8" stroke="#07111F" stroke-width="3"/>
<text class="label" y="75">13 Rune Tome</text><text class="sub" y="91">ranged</text></g>
<rect class="card" x="170" y="390" width="140" height="170" rx="12"/>
<g id="weapon_14" transform="translate(240 462)">
<ellipse cx="0" cy="43" rx="34" ry="8" fill="#050B16" opacity=".42"/><path class="ink" fill="#A3E635" d="M0-64 18 19 0 45-18 19z"/><path class="thin" fill="#D9F99D" d="M0-45 7 17 0 29-7 17z"/><path class="ink" fill="#A3E635" d="M-22 35h44v9h-44z"/>
<text class="label" y="75">14 Railgun</text><text class="sub" y="91">ranged</text></g>
<rect class="card" x="330" y="390" width="140" height="170" rx="12"/>
<g id="weapon_15" transform="translate(400 462)">
<ellipse cx="0" cy="43" rx="34" ry="8" fill="#050B16" opacity=".42"/><path class="ink" fill="#F59E0B" d="M-10-49h20v83h-20z"/><path class="ink" fill="#FEF3C7" d="M-37-43h74v27h-74z"/><path class="thin" d="M-24-34h48"/>
<text class="label" y="75">15 Toxic Sprayer</text><text class="sub" y="91">ranged</text></g>
<rect class="card" x="490" y="390" width="140" height="170" rx="12"/>
<g id="weapon_16" transform="translate(560 462)">
<ellipse cx="0" cy="43" rx="34" ry="8" fill="#050B16" opacity=".42"/><path class="ink" fill="#E879F9" d="M-10-54h20v84h-20z"/><path class="ink" fill="#F5D0FE" d="M-28-46h56v16h-56z"/><path class="thin" d="M-20-38h40"/>
<text class="label" y="75">16 Shock Baton</text><text class="sub" y="91">melee</text></g>
<rect class="card" x="650" y="390" width="140" height="170" rx="12"/>
<g id="weapon_17" transform="translate(720 462)">
<ellipse cx="0" cy="43" rx="34" ry="8" fill="#050B16" opacity=".42"/><path class="ink" fill="#F97316" d="M-36-50 0-19 36-50 20 0 44 30 0 20-44 30-20 0z"/><circle cx="0" cy="0" r="9" fill="#FDE047" stroke="#07111F" stroke-width="3"/>
<text class="label" y="75">17 Twin Blades</text><text class="sub" y="91">melee</text></g>
<rect class="card" x="810" y="390" width="140" height="170" rx="12"/>
<g id="weapon_18" transform="translate(880 462)">
<ellipse cx="0" cy="43" rx="34" ry="8" fill="#050B16" opacity=".42"/><path class="ink" fill="none" d="M-35-42c28-22 48-3 48 19S-7 20-35 42"/><path class="ink" fill="#5EEAD4" d="M-6-44h12v88H-6z"/><path class="thin" fill="#F8FAFC" d="M-18-8h36v16h-36z"/>
<text class="label" y="75">18 Meteor Scepter</text><text class="sub" y="91">ranged</text></g>
<rect class="card" x="10" y="580" width="140" height="170" rx="12"/>
<g id="weapon_19" transform="translate(80 652)">
<ellipse cx="0" cy="43" rx="34" ry="8" fill="#050B16" opacity=".42"/><path class="ink" fill="#A78BFA" d="M-42-22h84v44h-84z"/><path class="thin" fill="#C4B5FD" d="M-27-12h54v24h-54z"/><path class="ink" fill="#A78BFA" d="M-12 22h24v29h-24z"/>
<text class="label" y="75">19 Wind Fan</text><text class="sub" y="91">ranged</text></g>
<rect class="card" x="170" y="580" width="140" height="170" rx="12"/>
<g id="weapon_20" transform="translate(240 652)">
<ellipse cx="0" cy="43" rx="34" ry="8" fill="#050B16" opacity=".42"/><path class="ink" fill="#F43F5E" d="M-8-56h16v112H-8z"/><path class="ink" fill="#FDA4AF" d="M-34-25h68v15h-68zM-34 10h68v15h-68z"/>
<text class="label" y="75">20 Crystal Lance</text><text class="sub" y="91">melee</text></g>
<rect class="card" x="330" y="580" width="140" height="170" rx="12"/>
<g id="weapon_21" transform="translate(400 652)">
<ellipse cx="0" cy="43" rx="34" ry="8" fill="#050B16" opacity=".42"/><path class="ink" fill="#38BDF8" d="M0-65 10 25 0 39-10 25z"/><path class="thin" fill="#BAE6FD" d="M0-50 3 21-3 21z"/><path class="ink" fill="#BAE6FD" d="M-20 35h40v9h-40z"/>
<text class="label" y="75">21 Drone Controller</text><text class="sub" y="91">ranged</text></g>
<rect class="card" x="490" y="580" width="140" height="170" rx="12"/>
<g id="weapon_22" transform="translate(560 652)">
<ellipse cx="0" cy="43" rx="34" ry="8" fill="#050B16" opacity=".42"/><path class="ink" fill="none" d="M-38-46c-28 34-28 68 0 92"/><path class="thin" d="M-38-46 42 46"/><path class="ink" fill="#A3E635" d="M-38-5h72l-10 5 10 5h-72z"/><path class="thin" fill="#D9F99D" d="M34-12 55 0 34 12z"/>
<text class="label" y="75">22 Bloom Staff</text><text class="sub" y="91">ranged</text></g>
<rect class="card" x="650" y="580" width="140" height="170" rx="12"/>
<g id="weapon_23" transform="translate(720 652)">
<ellipse cx="0" cy="43" rx="34" ry="8" fill="#050B16" opacity=".42"/><path class="ink" fill="#F59E0B" d="M-8-57h16v104H-8z"/><circle class="ink" cx="0" cy="-58" r="20" fill="#FEF3C7"/><circle cx="0" cy="-58" r="7" fill="#F59E0B" stroke="#07111F" stroke-width="3"/>
<text class="label" y="75">23 Sonic Horn</text><text class="sub" y="91">ranged</text></g>
<rect class="card" x="810" y="580" width="140" height="170" rx="12"/>
<g id="weapon_24" transform="translate(880 652)">
<ellipse cx="0" cy="43" rx="34" ry="8" fill="#050B16" opacity=".42"/><path class="ink" fill="#E879F9" d="M0-64 18 19 0 45-18 19z"/><path class="thin" fill="#F5D0FE" d="M0-45 7 17 0 29-7 17z"/><path class="ink" fill="#E879F9" d="M-22 35h44v9h-44z"/>
<text class="label" y="75">24 Magma Gauntlet</text><text class="sub" y="91">ranged</text></g>
<rect class="card" x="10" y="770" width="140" height="170" rx="12"/>
<g id="weapon_25" transform="translate(80 842)">
<ellipse cx="0" cy="43" rx="34" ry="8" fill="#050B16" opacity=".42"/><path class="ink" fill="#F97316" d="M-10-49h20v83h-20z"/><path class="ink" fill="#FDE047" d="M-37-43h74v27h-74z"/><path class="thin" d="M-24-34h48"/>
<text class="label" y="75">25 Moon Scythe</text><text class="sub" y="91">melee</text></g>
<rect class="card" x="170" y="770" width="140" height="170" rx="12"/>
<g id="weapon_26" transform="translate(240 842)">
<ellipse cx="0" cy="43" rx="34" ry="8" fill="#050B16" opacity=".42"/><path class="ink" fill="#5EEAD4" d="M-10-54h20v84h-20z"/><path class="ink" fill="#F8FAFC" d="M-28-46h56v16h-56z"/><path class="thin" d="M-20-38h40"/>
<text class="label" y="75">26 Neon Crossbow</text><text class="sub" y="91">ranged</text></g>
<rect class="card" x="330" y="770" width="140" height="170" rx="12"/>
<g id="weapon_27" transform="translate(400 842)">
<ellipse cx="0" cy="43" rx="34" ry="8" fill="#050B16" opacity=".42"/><path class="ink" fill="#A78BFA" d="M-36-50 0-19 36-50 20 0 44 30 0 20-44 30-20 0z"/><circle cx="0" cy="0" r="9" fill="#C4B5FD" stroke="#07111F" stroke-width="3"/>
<text class="label" y="75">27 Orbit Ring</text><text class="sub" y="91">ranged</text></g>
<rect class="card" x="490" y="770" width="140" height="170" rx="12"/>
<g id="weapon_28" transform="translate(560 842)">
<ellipse cx="0" cy="43" rx="34" ry="8" fill="#050B16" opacity=".42"/><path class="ink" fill="none" d="M-35-42c28-22 48-3 48 19S-7 20-35 42"/><path class="ink" fill="#F43F5E" d="M-6-44h12v88H-6z"/><path class="thin" fill="#FDA4AF" d="M-18-8h36v16h-36z"/>
<text class="label" y="75">28 Ash Flail</text><text class="sub" y="91">melee</text></g>
<rect class="card" x="650" y="770" width="140" height="170" rx="12"/>
<g id="weapon_29" transform="translate(720 842)">
<ellipse cx="0" cy="43" rx="34" ry="8" fill="#050B16" opacity=".42"/><path class="ink" fill="#38BDF8" d="M-42-22h84v44h-84z"/><path class="thin" fill="#BAE6FD" d="M-27-12h54v24h-54z"/><path class="ink" fill="#38BDF8" d="M-12 22h24v29h-24z"/>
<text class="label" y="75">29 Quantum Pistol</text><text class="sub" y="91">ranged</text></g>
<rect class="card" x="810" y="770" width="140" height="170" rx="12"/>
<g id="weapon_30" transform="translate(880 842)">
<ellipse cx="0" cy="43" rx="34" ry="8" fill="#050B16" opacity=".42"/><path class="ink" fill="#A3E635" d="M-8-56h16v112H-8z"/><path class="ink" fill="#D9F99D" d="M-34-25h68v15h-68zM-34 10h68v15h-68z"/>
<text class="label" y="75">30 Star Harpoon</text><text class="sub" y="91">ranged</text></g>
</svg>